HIERARCHY
ROOT Hip
{
	OFFSET 0.842066 -2.343263 0.103934
	CHANNELS 6 Xposition Yposition Zposition Xrotation Yrotation Zrotation
	JOINT LowerSpine
	{
		OFFSET 0.012766 0.154723 0.258975
		CHANNELS 6 Xposition Yposition Zposition Xrotation Yrotation Zrotation
		JOINT MiddleSpine
		{
			OFFSET 0.012376 -0.010875 0.236462
			CHANNELS 3 Xrotation Yrotation Zrotation
			JOINT Chest
			{
				OFFSET 0.014968 0.059011 0.292532
				CHANNELS 3 Xrotation Yrotation Zrotation
				JOINT Neck
				{
					OFFSET 0.034301 0.013075 0.659315
					CHANNELS 6 Xposition Yposition Zposition Xrotation Yrotation Zrotation
					JOINT Head
					{
						OFFSET 0.019885 -0.101004 0.372414
						CHANNELS 3 Xrotation Yrotation Zrotation
						End Site
						{
							OFFSET 0.002794 -0.001540 0.053472
						}
					}
				}
				JOINT LClavicle
				{
					OFFSET 0.094004 -0.195483 0.633325
					CHANNELS 6 Xposition Yposition Zposition Xrotation Yrotation Zrotation
					JOINT LShoulder
					{
						OFFSET 0.354037 0.149628 0.072900
						CHANNELS 3 Xrotation Yrotation Zrotation
						JOINT LForearm
						{
							OFFSET 0.825856 0.011069 -0.045986
							CHANNELS 3 Xrotation Yrotation Zrotation
							JOINT LHand
							{
								OFFSET 0.689179 0.007391 -0.033919
								CHANNELS 3 Xrotation Yrotation Zrotation
								JOINT LFinger1
								{
									OFFSET 0.268645 -0.072992 0.009499
									CHANNELS 6 Xposition Yposition Zposition Xrotation Yrotation Zrotation
									JOINT LFinger11
									{
										OFFSET 0.098714 -0.017181 -0.029552
										CHANNELS 3 Xrotation Yrotation Zrotation
										JOINT LFinger12
										{
											OFFSET 0.067389 -0.011733 -0.020179
											CHANNELS 3 Xrotation Yrotation Zrotation
											End Site
											{
												OFFSET 0.049901 -0.008003 -0.017753
											}
										}
									}
								}
								JOINT LFinger2
								{
									OFFSET 0.272494 -0.005157 0.012850
									CHANNELS 6 Xposition Yposition Zposition Xrotation Yrotation Zrotation
									JOINT LFinger21
									{
										OFFSET 0.123532 0.001315 -0.006094
										CHANNELS 3 Xrotation Yrotation Zrotation
										JOINT LFinger22
										{
											OFFSET 0.068476 0.000741 -0.003359
											CHANNELS 3 Xrotation Yrotation Zrotation
											End Site
											{
												OFFSET 0.053164 0.000177 -0.006549
											}
										}
									}
								}
								JOINT LFinger3
								{
									OFFSET 0.257532 0.062091 0.004562
									CHANNELS 6 Xposition Yposition Zposition Xrotation Yrotation Zrotation
									JOINT LFinger31
									{
										OFFSET 0.111753 0.007552 -0.011521
										CHANNELS 3 Xrotation Yrotation Zrotation
										JOINT LFinger32
										{
											OFFSET 0.063683 0.004316 -0.006545
											CHANNELS 3 Xrotation Yrotation Zrotation
											End Site
											{
												OFFSET 0.052684 0.002754 -0.009287
											}
										}
									}
								}
								JOINT LFinger4
								{
									OFFSET 0.236934 0.106207 -0.030626
									CHANNELS 6 Xposition Yposition Zposition Xrotation Yrotation Zrotation
									JOINT LFinger41
									{
										OFFSET 0.068100 0.019367 -0.017987
										CHANNELS 3 Xrotation Yrotation Zrotation
										JOINT LFinger42
										{
											OFFSET 0.049939 0.014210 -0.013174
											CHANNELS 3 Xrotation Yrotation Zrotation
											End Site
											{
												OFFSET 0.049587 0.011795 -0.016473
											}
										}
									}
								}
								JOINT LFinger0
								{
									OFFSET 0.053270 -0.041725 -0.044662
									CHANNELS 6 Xposition Yposition Zposition Xrotation Yrotation Zrotation
									JOINT LFinger01
									{
										OFFSET 0.101473 -0.077208 -0.039077
										CHANNELS 3 Xrotation Yrotation Zrotation
										JOINT LFinger02
										{
											OFFSET 0.066704 -0.048571 -0.027727
											CHANNELS 3 Xrotation Yrotation Zrotation
											End Site
											{
												OFFSET 0.041835 -0.028928 -0.016804
											}
										}
									}
								}
							}
						}
					}
				}
				JOINT RClavicle
				{
					OFFSET -0.025812 -0.196047 0.639570
					CHANNELS 6 Xposition Yposition Zposition Xrotation Yrotation Zrotation
					JOINT RShoulder
					{
						OFFSET -0.345996 0.146345 0.109402
						CHANNELS 3 Xrotation Yrotation Zrotation
						JOINT RForearm
						{
							OFFSET -0.826230 0.003261 0.040119
							CHANNELS 3 Xrotation Yrotation Zrotation
							JOINT RHand
							{
								OFFSET -0.689010 0.000878 0.037911
								CHANNELS 3 Xrotation Yrotation Zrotation
								JOINT RFinger1
								{
									OFFSET -0.265502 -0.075517 0.037342
									CHANNELS 6 Xposition Yposition Zposition Xrotation Yrotation Zrotation
									JOINT RFinger11
									{
										OFFSET -0.101084 -0.018124 -0.019139
										CHANNELS 3 Xrotation Yrotation Zrotation
										JOINT RFinger12
										{
											OFFSET -0.069008 -0.012377 -0.013073
											CHANNELS 3 Xrotation Yrotation Zrotation
											End Site
											{
												OFFSET -0.051399 -0.008482 -0.012473
											}
										}
									}
								}
								JOINT RFinger2
								{
									OFFSET -0.269622 -0.007719 0.041108
									CHANNELS 6 Xposition Yposition Zposition Xrotation Yrotation Zrotation
									JOINT RFinger21
									{
										OFFSET -0.123507 0.000148 0.006781
										CHANNELS 3 Xrotation Yrotation Zrotation
										JOINT RFinger22
										{
											OFFSET -0.068458 0.000097 0.003778
											CHANNELS 3 Xrotation Yrotation Zrotation
											End Site
											{
												OFFSET -0.053556 -0.000327 -0.000987
											}
										}
									}
								}
								JOINT RFinger3
								{
									OFFSET -0.256236 0.059663 0.031339
									CHANNELS 6 Xposition Yposition Zposition Xrotation Yrotation Zrotation
									JOINT RFinger31
									{
										OFFSET -0.112411 0.006492 0.000163
										CHANNELS 3 Xrotation Yrotation Zrotation
										JOINT RFinger32
										{
											OFFSET -0.064057 0.003713 0.000113
											CHANNELS 3 Xrotation Yrotation Zrotation
											End Site
											{
												OFFSET -0.053387 0.002254 -0.003758
											}
										}
									}
								}
								JOINT RFinger4
								{
									OFFSET -0.239825 0.103953 -0.005778
									CHANNELS 6 Xposition Yposition Zposition Xrotation Yrotation Zrotation
									JOINT RFinger41
									{
										OFFSET -0.069780 0.018715 -0.010798
										CHANNELS 3 Xrotation Yrotation Zrotation
										JOINT RFinger42
										{
											OFFSET -0.051170 0.013733 -0.007902
											CHANNELS 3 Xrotation Yrotation Zrotation
											End Site
											{
												OFFSET -0.051140 0.011318 -0.011223
											}
										}
									}
								}
								JOINT RFinger0
								{
									OFFSET -0.057229 -0.042244 -0.038900
									CHANNELS 6 Xposition Yposition Zposition Xrotation Yrotation Zrotation
									JOINT RFinger01
									{
										OFFSET -0.104253 -0.078183 -0.028360
										CHANNELS 3 Xrotation Yrotation Zrotation
										JOINT RFinger02
										{
											OFFSET -0.068762 -0.049211 -0.020663
											CHANNELS 3 Xrotation Yrotation Zrotation
											End Site
											{
												OFFSET -0.043080 -0.029330 -0.012378
											}
										}
									}
								}
							}
						}
					}
				}
			}
		}
	}
	JOINT RThigh
	{
		OFFSET -0.300368 0.023843 0.133067
		CHANNELS 6 Xposition Yposition Zposition Xrotation Yrotation Zrotation
		JOINT RShin
		{
			OFFSET -0.085008 -0.001418 -1.204438
			CHANNELS 3 Xrotation Yrotation Zrotation
			JOINT RFoot
			{
				OFFSET -0.061694 -0.001290 -1.183823
				CHANNELS 3 Xrotation Yrotation Zrotation
				JOINT RToe
				{
					OFFSET -0.005481 -0.272590 -0.129884
					CHANNELS 3 Xrotation Yrotation Zrotation
					End Site
					{
						OFFSET 0.000256 -0.053566 0.000045
					}
				}
			}
		}
	}
	JOINT LThigh
	{
		OFFSET 0.312330 0.026741 0.101143
		CHANNELS 6 Xposition Yposition Zposition Xrotation Yrotation Zrotation
		JOINT LShin
		{
			OFFSET -0.040647 -0.001209 -1.206759
			CHANNELS 3 Xrotation Yrotation Zrotation
			JOINT LFoot
			{
				OFFSET -0.061694 -0.001290 -1.183823
				CHANNELS 3 Xrotation Yrotation Zrotation
				JOINT LToe
				{
					OFFSET -0.005481 -0.272592 -0.129884
					CHANNELS 3 Xrotation Yrotation Zrotation
					End Site
					{
						OFFSET 0.000256 -0.053566 0.000045
					}
				}
			}
		}
	}
}
MOTION
Frames: 4
Frame Time: 0.041667
0.766563 -2.334317 2.069894 -13.117399 34.183041 90.200762 0.012767 0.154723 0.258975 -0.000001 0.000002 0.000001 -5.469805 -8.079193 -11.389931 -23.355181 -20.649375 -42.317899 0.034301 0.013075 0.659316 -9.825349 13.823281 5.576265 -0.001476 0.024795 0.005153 0.094004 -0.195483 0.633325 -0.045253 7.761385 -0.004727 25.685792 11.082638 -91.743019 -0.746574 0.090929 -15.405171 0.000000 -0.000034 0.000003 0.268644 -0.072992 0.009499 -0.000000 -0.000000 -0.000005 0.000001 0.000000 -0.000003 -0.000001 0.000003 0.000001 0.272494 -0.005157 0.012851 0.000001 -0.000002 -0.000001 0.000000 0.000002 0.000002 0.000003 -0.000003 0.000003 0.257532 0.062091 0.004562 -0.000006 -0.000006 -0.000005 0.000006 -0.000001 -0.000002 0.000004 0.000011 0.000005 0.236934 0.106207 -0.030626 -0.000004 -0.000003 -0.000004 0.000006 0.000001 0.000008 0.000003 0.000001 -0.000007 0.053270 -0.041725 -0.044661 -0.000016 -0.000011 -0.000002 -0.000010 -0.000003 -0.000006 -0.000008 -0.000001 -0.000006 -0.025812 -0.196046 0.639570 0.046897 -9.193796 0.015200 32.916089 -43.399142 7.367882 -0.023640 -0.000418 -0.453456 -0.000007 -0.000041 -0.000005 -0.265502 -0.075517 0.037342 -0.403741 0.018921 -7.759974 -0.000000 -0.000001 -0.000013 -0.000007 0.000006 -0.000004 -0.269621 -0.007720 0.041108 0.000001 0.000004 0.000003 0.000006 -0.000005 0.000007 -0.000003 0.000001 0.000002 -0.256236 0.059663 0.031339 -0.000004 0.000010 0.000005 0.000002 -0.000005 -0.000000 -0.000000 0.000007 0.000004 -0.239825 0.103953 -0.005778 0.000002 0.000001 0.000012 -0.000004 -0.000001 0.000014 -0.000000 0.000001 0.000004 -0.057228 -0.042244 -0.038900 -0.000003 0.000015 -0.000004 -0.000012 -0.000008 0.000007 0.000002 -0.000006 0.000010 -0.251524 -0.022669 0.182069 -74.576827 -5.823661 -16.416945 19.744337 -0.084095 -1.024740 26.315816 0.258263 -3.399071 0.000051 0.000019 0.000000 0.276518 -0.161095 0.075268 -50.673382 0.716631 -12.718986 73.237994 -1.866650 -3.053079 -4.628211 0.447870 -0.671142 -36.083322 -0.730300 1.700178 
0.837517 -2.359763 2.061192 -12.515648 33.855182 89.461265 0.012766 0.154723 0.258974 -0.000004 0.000001 0.000001 -5.349559 -7.773392 -11.205665 -22.809692 -20.095103 -41.798015 0.034301 0.013075 0.659316 -10.138169 13.486587 5.512565 -0.159942 -0.147486 0.008365 0.094004 -0.195483 0.633325 -0.046467 7.534353 -0.004887 23.066515 12.454011 -89.605019 -0.464476 0.032756 -9.548176 0.000004 -0.000033 0.000006 0.268644 -0.072991 0.009499 -0.000004 -0.000006 -0.000007 0.000002 0.000001 -0.000007 0.000001 -0.000002 -0.000000 0.272495 -0.005157 0.012850 -0.000003 0.000000 -0.000003 0.000001 -0.000004 -0.000001 0.000007 -0.000003 0.000005 0.257533 0.062091 0.004562 -0.000008 -0.000007 -0.000010 0.000005 0.000004 0.000001 -0.000001 0.000010 0.000008 0.236934 0.106207 -0.030626 -0.000012 -0.000003 -0.000002 0.000008 0.000000 0.000015 0.000002 -0.000004 -0.000005 0.053271 -0.041725 -0.044661 -0.000020 -0.000006 -0.000006 -0.000010 -0.000002 -0.000010 -0.000007 -0.000004 -0.000007 -0.025812 -0.196047 0.639570 0.046442 -8.943310 0.016313 30.632244 -39.440907 6.945000 -0.046394 -0.001691 -0.863923 -0.000002 -0.000043 -0.000006 -0.265502 -0.075517 0.037342 -0.403741 0.018918 -7.759973 0.000002 0.000000 -0.000014 -0.000012 0.000003 0.000000 -0.269621 -0.007720 0.041109 0.000004 0.000000 0.000009 0.000004 0.000000 0.000004 -0.000001 0.000001 0.000000 -0.256236 0.059663 0.031340 0.000001 0.000007 0.000003 -0.000001 -0.000001 -0.000005 0.000000 0.000009 -0.000001 -0.239824 0.103953 -0.005778 0.000008 0.000001 0.000010 0.000003 -0.000000 0.000014 -0.000001 0.000000 0.000000 -0.057228 -0.042245 -0.038900 0.000002 0.000014 -0.000003 -0.000014 -0.000007 0.000009 0.000001 -0.000005 0.000012 -0.251524 -0.022669 0.182068 -74.316017 -6.248057 -16.669415 22.776746 -0.128047 -1.177227 21.801817 0.471169 -3.346267 0.000103 0.000018 -0.000002 0.276518 -0.161095 0.075268 -47.734143 0.436357 -12.734377 72.269282 -1.819762 -3.033719 -5.429289 0.006471 0.197661 -36.853013 -0.756989 1.730166 
0.913442 -2.383551 2.055040 -11.838682 33.370607 88.392702 0.012766 0.154723 0.258974 -0.000001 0.000002 0.000002 -5.220532 -7.438747 -10.968628 -22.239355 -19.486776 -41.269693 0.034301 0.013075 0.659315 -10.308724 13.333183 5.488129 -0.322325 -0.306412 0.011372 0.094004 -0.195483 0.633324 -0.048293 7.325566 -0.005097 20.592076 13.236867 -85.959276 -0.221926 0.006299 -4.589702 0.000003 -0.000026 -0.000001 0.268644 -0.072992 0.009499 -0.000004 -0.000003 -0.000006 0.000002 0.000002 -0.000002 -0.000004 0.000002 0.000000 0.272494 -0.005157 0.012850 -0.000001 -0.000006 -0.000000 0.000000 -0.000001 0.000000 -0.000002 -0.000003 0.000003 0.257532 0.062091 0.004563 -0.000007 -0.000007 -0.000010 0.000007 -0.000001 -0.000004 0.000000 0.000010 0.000005 0.236933 0.106207 -0.030626 -0.000012 -0.000001 -0.000005 0.000007 0.000000 0.000007 0.000000 0.000009 -0.000004 0.053270 -0.041725 -0.044661 -0.000016 -0.000009 -0.000003 -0.000009 -0.000001 -0.000010 -0.000010 0.000002 -0.000006 -0.025812 -0.196046 0.639569 0.046841 -8.684532 0.019143 28.755062 -34.973004 7.752687 -0.063270 -0.002063 -1.162757 0.000003 -0.000045 -0.000006 -0.265502 -0.075517 0.037342 -0.403741 0.018919 -7.759970 -0.000002 -0.000002 -0.000009 -0.000009 0.000002 0.000002 -0.269621 -0.007720 0.041109 0.000001 0.000002 0.000008 -0.000002 -0.000002 0.000007 -0.000003 0.000002 -0.000002 -0.256236 0.059663 0.031340 -0.000006 0.000005 0.000007 -0.000003 -0.000002 -0.000002 -0.000003 0.000008 -0.000000 -0.239824 0.103954 -0.005777 0.000005 -0.000001 0.000009 0.000001 -0.000001 0.000014 -0.000002 0.000002 -0.000001 -0.057228 -0.042244 -0.038899 -0.000007 0.000013 0.000006 -0.000008 -0.000007 0.000005 0.000003 -0.000009 0.000014 -0.251524 -0.022669 0.182068 -74.125953 -6.674650 -16.964674 26.765788 -0.198037 -1.373889 15.844096 0.560541 -2.737706 0.000162 0.000018 -0.000007 0.276518 -0.161095 0.075268 -44.202355 0.020078 -12.503033 70.628493 -1.741104 -2.999119 -6.058244 -0.488944 1.127757 -37.544723 -0.781317 1.756812 
0.991363 -2.402959 2.055060 -11.025509 32.768034 87.270331 0.012766 0.154723 0.258975 -0.000003 0.000002 0.000000 -5.086006 -7.082499 -10.687982 -21.613085 -18.773572 -40.731215 0.034301 0.013075 0.659315 -10.446350 13.226633 5.474451 -0.487717 -0.449684 0.014288 0.094004 -0.195483 0.633324 -0.050793 7.136757 -0.005375 18.409633 13.831068 -80.848867 -0.058447 0.000304 -1.255063 0.000004 -0.000031 0.000001 0.268644 -0.072992 0.009499 0.000001 -0.000004 -0.000006 0.000001 0.000003 0.000004 -0.000001 -0.000000 -0.000003 0.272495 -0.005157 0.012850 -0.000002 -0.000002 -0.000006 -0.000004 -0.000003 0.000002 -0.000002 0.000006 0.000006 0.257532 0.062091 0.004562 -0.000006 -0.000006 -0.000007 0.000002 0.000003 0.000001 0.000001 0.000006 0.000008 0.236934 0.106207 -0.030627 -0.000005 -0.000002 -0.000004 0.000001 -0.000001 0.000012 0.000003 0.000004 -0.000002 0.053270 -0.041725 -0.044662 -0.000015 -0.000010 -0.000006 -0.000010 -0.000000 -0.000003 -0.000008 -0.000000 -0.000006 -0.025812 -0.196047 0.639569 0.048094 -8.418367 0.023684 27.172743 -30.258360 9.617738 -0.056141 -0.000657 -1.023279 0.000001 -0.000044 -0.000004 -0.265502 -0.075517 0.037342 -0.403736 0.018919 -7.759971 0.000003 0.000001 -0.000011 -0.000006 0.000006 0.000001 -0.269621 -0.007720 0.041109 0.000006 0.000000 0.000007 -0.000002 -0.000003 0.000002 0.000001 0.000002 0.000001 -0.256236 0.059663 0.031340 -0.000001 0.000006 0.000001 0.000001 -0.000008 -0.000001 -0.000004 0.000009 0.000001 -0.239824 0.103954 -0.005778 0.000008 0.000003 0.000007 0.000003 0.000002 0.000011 0.000001 -0.000002 0.000002 -0.057228 -0.042244 -0.038900 0.000003 0.000012 -0.000001 -0.000015 -0.000006 0.000006 -0.000003 -0.000003 0.000010 -0.251524 -0.022669 0.182069 -73.637055 -6.879960 -17.126517 30.648719 -0.279149 -1.560208 10.554770 0.497387 -1.902681 0.000213 0.000019 -0.000009 0.276518 -0.161095 0.075268 -40.137709 -0.289475 -12.128807 67.948942 -1.614877 -2.937821 -6.099206 -0.918124 1.917907 -38.218330 -0.805312 1.782473 
